PathFileType	4	(X/Y/Z)	6_coords_data.trc
DataRate	CameraRate	NumFrames	NumMarkers	Units	OrigDataRate	OrigDataStartFrame	OrigNumFrames
30.0	30.0	5	21	m	30.0	1	82
Frame#	Time	THUMB_TIP	THUMB_IP	THUMB_MCP	THUMB_CMC	INDEX_TIP	INDEX_DIP	INDEX_PIP	INDEX_MCP	MIDDLE_TIP	MIDDLE_DIP	MIDDLE_PIP	MIDDLE_MCP	RING_TIP	RING_DIP	RING_PIP	RING_MCP	PINKY_TIP	PINKY_DIP	PINKY_PIP	PINKY_MCP	WRIST
X1	Y1	Z1	X2	Y2	Z2	X3	Y3	Z3	X4	Y4	Z4	X5	Y5	Z5	X6	Y6	Z6	X7	Y7	Z7	X8	Y8	Z8	X9	Y9	Z9	X10	Y10	Z10	X11	Y11	Z11	X12	Y12	Z12	X13	Y13	Z13	X14	Y14	Z14	X15	Y15	Z15	X16	Y16	Z16	X17	Y17	Z17	X18	Y18	Z18	X19	Y19	Z19	X20	Y20	Z20	X21	Y21	Z21
0	-2.749317978547796e-18	0.49410194029794907	-0.01313936547145056	-0.1709856819923807	0.49351565523234797	-0.018115335183122916	-0.148560339291535	0.48061123781757464	-0.025091232725662937	-0.12110796481023967	0.47607027072005526	-0.027048268832109312	-0.07677468580341107	0.5062440744789523	-0.01838878426367685	-0.10079966424640435	0.523577367746981	-0.016831115480306136	-0.10581270847579388	0.5344722866797185	0.0003712036571529298	-0.12055688667405562	0.4961113221814277	0.018602106795535645	-0.11744133415166341	0.5024073721216621	-0.01926960419278745	-0.08648600070481804	0.5197210827840977	-0.014547822992180381	-0.08892325436233084	0.5378136484669931	0.005347278264010158	-0.1001595154404672	0.5016536740787269	0.03150688229481946	-0.09809087091054225	0.5050822418195562	0.000564426517176364	-0.07315832952289808	0.5225976590688931	-0.0033385172495240534	-0.07488378266210804	0.5413479400113954	0.011881927684537663	-0.08096202250489415	0.5098502209895388	0.03674890475263881	-0.07603779851377435	0.5098145133533064	-0.005677383827826676	-0.05847841533290804	0.5267849911291806	-0.006333014664343328	-0.06061688026476131	0.5414422743067742	0.008545430962139444	-0.06276348795868758	0.5136280639779537	0.030028181911204155	-0.054655185642876025	0.4622830810018609	-0.023011742144276925	-0.051989820119430985
1	0.03333333333333339	0.4939637239244986	-0.013034424704463587	-0.17078070812714807	0.4934340577709907	-0.017961485570560654	-0.14834316091298927	0.48037967159619555	-0.02520172351747474	-0.12103049066507343	0.4764695835210724	-0.026610066186287473	-0.07661632870999452	0.5054106896345945	-0.017128748207200895	-0.10106031784677066	0.5228406688474648	-0.016283435214097808	-0.10590606552722204	0.534662130029592	0.0005310614054856444	-0.12038140980462991	0.4962556649733726	0.018675130655998795	-0.11731999070264787	0.5022088006252967	-0.018319522728350246	-0.08666447777103736	0.5197411395440175	-0.01430070125486027	-0.08877780831861465	0.5380741172235727	0.005314635167913195	-0.10011580004653292	0.5019265326118891	0.031478478280008604	-0.09789018522207621	0.5047054949244839	-0.001704072094055431	-0.07291213476664588	0.5225412137813665	-0.0036282682651381792	-0.07469668007384167	0.5412063474314772	0.011583448271590746	-0.08105249983447915	0.5099037875019212	0.036687148582819296	-0.07608512562463987	0.5102034964277875	-0.005766139360779077	-0.058420832862047356	0.5271646344189715	-0.006446627126814541	-0.06062463286302067	0.5415661975460349	0.008663457956212373	-0.06288125141317386	0.51364222420141	0.030007801898023323	-0.05478469996565216	0.462283081001861	-0.023011742144276925	-0.051989820119430985
2	0.06666666666666676	0.4939021976607759	-0.012977078792747121	-0.17059623421374975	0.49340158324872596	-0.01786175936696699	-0.14814875593893484	0.48021318141518976	-0.02529662835258195	-0.12095300663423797	0.47676349852708555	-0.026290737959916766	-0.07648952235713563	0.5048767173276006	-0.016146152960748617	-0.10127299539728035	0.5223651954240465	-0.015883156423652234	-0.10597235351213047	0.5348124270850451	0.0006495093840811483	-0.12024635849556914	0.49637029858169335	0.018725181472644903	-0.1172282583185511	0.5020550154497286	-0.017507420613338986	-0.08684290945400869	0.519751416029341	-0.01411510898402224	-0.08866763637480846	0.5382684282577421	0.005287867625922149	-0.1000717718881739	0.5021313539736993	0.03145682933105021	-0.09773827098499638	0.5045700588159449	-0.0035546543501637773	-0.07274638163593494	0.5225040485168844	-0.0038437570303359037	-0.07455978535461194	0.541103530897118	0.011363953888463008	-0.08111453651675571	0.5099455395345385	0.036640926131820906	-0.07611702889215571	0.5104958383213634	-0.005832286130622033	-0.058377863328437474	0.527449885191702	-0.006519022092052018	-0.06063367547434789	0.5416581793963829	0.008761584015247736	-0.06296594299476332	0.5136487605780827	0.029996529492703483	-0.05487687635944993	0.462283081001861	-0.023011742144276925	-0.051989820119430985
3	0.10000000000000014	0.4939100162604887	-0.012962953472627992	-0.17044330316708453	0.4934140847282903	-0.017811279491988685	-0.14798784087557593	0.48010683877858473	-0.025376804455289115	-0.1208861797223601	0.4769719016079912	-0.026070939445277275	-0.07639370456585631	0.5045517604856166	-0.015427038555107964	-0.10143486178903544	0.5220729058625369	-0.015608580665949168	-0.10601487348583444	0.5349281356792179	0.0007324327474791392	-0.12014725403485993	0.4964588330345979	0.01875572949515847	-0.11716235497765054	0.5019431340381376	-0.016865237927879195	-0.08699494004568886	0.5197520280503911	-0.01398199284943924	-0.08858559773292929	0.5384062940196808	0.005266741415924536	-0.1000273694632342	0.5022775549944392	0.03144134607681659	-0.09762899328506564	0.5045735611844029	-0.004926112403619731	-0.07264100437899285	0.5224848773668556	-0.003995941198676745	-0.07446296325385982	0.5410355761387087	0.011212513754728537	-0.08115284008428109	0.5099771667970762	0.03660794315950444	-0.07613604743213404	0.5107035722633846	-0.005882648633444343	-0.05834599219424025	0.5276524293972369	-0.006560635671297166	-0.06064307195619184	0.5417218276984868	0.008840735419956336	-0.06302252965707433	0.5136489367188424	0.029993050131292387	-0.05493699780087552	0.4622830810018609	-0.023011742144276925	-0.051989820119430985
4	0.13333333333333353	0.4939780504960751	-0.012986797289232688	-0.1703257587483942	0.49346584016036243	-0.017804201797304575	-0.14786400782871745	0.4800539107520718	-0.025443642002017763	-0.12083478100097333	0.47711067508633753	-0.02593376489927912	-0.07632649926193597	0.5043750259537408	-0.014947834636710788	-0.1015476762323626	0.5219133379318253	-0.01543872785198308	-0.10603840410327364	0.5350138894836933	0.0007854920685061995	-0.12007977405098325	0.4965246244011142	0.01877004635774715	-0.11711862994434008	0.5018658924971663	-0.01641044941775127	-0.08710357466483287	0.5197443424704087	-0.013893370373153413	-0.08852671894336284	0.53849658523762	0.005250982913314273	-0.09998344964817096	0.50237388969183	0.03143128641855786	-0.09755641526862607	0.5046302075289377	-0.005829627955660999	-0.07257902810713956	0.5224817975932355	-0.0040947263067812045	-0.0743986018058333	0.5409980085705739	0.01111887788082555	-0.08117179585779521	0.5100001599616937	0.0365861201885439	-0.0761444919221943	0.5108383000850621	-0.005922060509478189	-0.05832284133737009	0.5277835266106179	-0.006579332529266013	-0.060652496137894196	0.5417607057496465	0.00890210623411658	-0.06305573065228082	0.5136439351406072	0.029996042665592082	-0.05497015662543836	0.4622830810018608	-0.023011742144276925	-0.051989820119430985
